<?xml version="1.0" encoding="UTF-8" standalone="no"?>
<svg width="102px" height="93px" viewBox="0 0 102 93" version="1.1" xmlns="http://www.w3.org/2000/svg" xmlns:xlink="http://www.w3.org/1999/xlink">
    <!-- Generator: Sketch 3.8.1 (29687) - http://www.bohemiancoding.com/sketch -->
    <title>s</title>
    <desc>Created with Sketch.</desc>
    <defs></defs>
    <g id="Page-1" stroke="none" stroke-width="1" fill="none" fill-rule="evenodd">
        <g id="Black" transform="translate(-136.000000, -115.000000)" fill="#444444">
            <g id="s" transform="translate(188.811557, 160.532418) rotate(-21.000000) translate(-188.811557, -160.532418) translate(143.811557, 112.032418)">
                <g id="Group" transform="translate(-0.000000, -0.000000)">
                    <path d="M39.255,32.015 C39.238,21.78 36.362,14.723 30.016,9.337 C23.701,3.979 13.119,2.944 7.274,7.115 C1.114,11.509 -0.97,21.664 2.613,29.789 C6.254,38.045 13.116,42.769 21.311,45.007 C34.765,48.682 38.732,48.468 39.255,32.015 L39.255,32.015 Z" id="Path"></path>
                    <path d="M72.0593679,89.8504196 C62.8943679,73.1354196 59.0023679,56.2274196 60.1543679,38.2104196 C60.5533679,31.9744196 60.4933679,31.8014196 54.0533679,32.0114196 C51.2183679,32.1044196 47.5163679,30.7334196 46.8723679,35.7594196 C44.2893679,55.9164196 47.7493679,74.7574196 58.8743679,91.9284196 C59.5173679,92.9214196 61.6723679,93.7424196 62.8173679,93.4494196 C65.7923679,92.6844196 68.5963679,91.2544196 72.0593679,89.8504196 L72.0593679,89.8504196 Z" id="Path"></path>
                    <path d="M29.235,87.313 C32.938,95.54 37.644,97.768 47.414,95.554 C39.806,82.377 35.981,68.113 34.819,53.2 C30.486,52.875 26.701,52.59 22.58,52.279 C21.125,60.887 23.969,75.614 29.235,87.313 Z" id="Path"></path>
                    <path d="M88.834,59.021 C88.4860525,57.1244203 87.5148115,54.0737325 86.923,51.904 C85.5983421,49.2963402 84.1082321,46.9846837 82.3740133,44.9427009 C79.3205521,41.3473554 75.5103271,38.5880279 70.514,36.521 C69.233,53.596 72.081,68.84 80.145,83.739 C86.952,76.452 90.163,68.767 88.834,59.021 Z" id="Path"></path>
                    <path d="M34.853,4.66 C37.217,7.898 39.771,10.612 41.373,13.803 C43.055,17.156 43.798,20.976 45.014,24.57 C45.262,25.301 45.62,26.229 46.214,26.573 C49.719,28.602 57.215,25.151 58.072,21.196 C58.352,19.9 58.698,18.606 58.818,17.291 C59.401,10.892 56.291,4.956 51.036,2.3 C45.435,-0.533 40.06,0.211 34.853,4.66 L34.853,4.66 Z" id="Path"></path>
                    <path d="M3.882,74.848 C5.655,80.857 12.25,87.076 16.872,87.905 C14.718,77.056 12.509,65.935 10.182,54.217 C5.448,60.549 1.485,66.725 3.882,74.848 Z" id="Path"></path>
                </g>
            </g>
        </g>
    </g>
</svg>